<svg width="718" height="127" viewBox="0 0 718 127" fill="none" xmlns="http://www.w3.org/2000/svg">
<path d="M31.8711 109.188C30.3477 111.062 28.6484 112 26.7734 112H20.6211C18.1602 112 16.7148 110.73 16.2852 108.191L1.05078 21.1211C0.972656 20.6133 0.933594 20.1641 0.933594 19.7734C0.933594 17.2734 2.41797 16.0234 5.38672 16.0234H20.6211C22.8477 16.0234 24.1758 17.1562 24.6055 19.4219L32.5156 61.375L48.043 31.1992C49.332 28.6602 51.1094 27.3906 53.375 27.3906H56.2461C58.5508 27.3906 60.2695 28.6211 61.4023 31.082L71.6562 53.3477L85.8359 13.3867C86.2266 12.332 86.9883 11.8047 88.1211 11.8047H102.887C104.527 11.8047 105.348 12.4883 105.348 13.8555C105.348 14.0508 105.328 14.2852 105.289 14.5586L88.8828 108.191C88.4531 110.73 87.0078 112 84.5469 112H76.4023C73.9414 112 72.0664 110.926 70.7773 108.777L54.5469 81.4141L31.8711 109.188Z" fill="white"/>
<path d="M143.844 81.1797L139.391 62.1953C139.078 60.9062 138.199 60.2617 136.754 60.2617C135.777 60.2617 135.152 60.75 134.879 61.7266L129.957 79.1289C129.801 79.6367 129.723 80.0859 129.723 80.4766C129.723 81.6484 130.426 82.3516 131.832 82.5859L141.324 84.168C141.441 84.207 141.559 84.2266 141.676 84.2266C143.199 84.2266 143.961 83.4648 143.961 81.9414C143.961 81.707 143.922 81.4531 143.844 81.1797ZM182.633 123.66C182.711 123.895 182.75 124.129 182.75 124.363C182.75 125.887 181.949 126.648 180.348 126.648H161.305C158.727 126.648 156.969 125.535 156.031 123.309L146.598 100.574L125.738 97.3516L120.875 109.07C120.055 111.023 118.727 112 116.891 112H99.7812C98.2188 112 97.4375 111.238 97.4375 109.715C97.4375 109.402 97.4766 109.09 97.5547 108.777L130.777 21.7656C131.598 19.5781 133.258 18.3672 135.758 18.1328L148.941 16.8438C149.293 16.8047 149.625 16.7852 149.938 16.7852C152.867 16.7852 154.703 18.1914 155.445 21.0039L182.633 123.66Z" fill="white"/>
<path d="M208.004 74.9102L204.488 108.074C204.215 110.691 202.77 112 200.152 112H188.551C185.777 112 184.391 110.633 184.391 107.898V107.84L185.328 21.0039C185.367 18.2305 186.754 16.8438 189.488 16.8438H202.848C203.629 16.8438 204.273 17.1562 204.781 17.7812L226.754 45.1445L235.953 3.83594C236.5 1.45312 237.984 0.261719 240.406 0.261719H250.66C253.355 0.261719 254.703 1.45312 254.703 3.83594C254.703 4.07031 254.684 4.30469 254.645 4.53906L245.094 106.785C244.859 109.363 243.434 110.652 240.816 110.652H230.094C229.195 110.652 228.512 110.262 228.043 109.48L208.004 74.9102Z" fill="white"/>
<path d="M293.902 87.5078C297.066 87.5078 298.648 85.9258 298.648 82.7617V79.7734C298.648 76.6094 297.066 75.0273 293.902 75.0273H284.879C278.863 75.0273 273.766 72.957 269.586 68.8164L265.016 64.3047C261.266 60.5938 259.391 55.9062 259.391 50.2422V38.582C259.391 32.3711 261.148 27.5859 264.664 24.2266C268.219 20.8281 273.102 19.1289 279.312 19.1289H320.035C323.199 19.1289 324.781 20.7109 324.781 23.875V38.7578C324.781 41.9219 323.199 43.5039 320.035 43.5039H293.434C290.27 43.5039 288.688 45.0859 288.688 48.25V50.0078C288.688 53.1719 290.27 54.7539 293.434 54.7539H300.992C306.617 54.7539 311.148 56.082 314.586 58.7383L317.398 60.9062C321.031 63.7188 322.848 68.0938 322.848 74.0312V93.0156C322.848 98.875 320.641 103.465 316.227 106.785C311.812 110.105 306.637 111.766 300.699 111.766H261.793C260.191 111.766 259.391 110.965 259.391 109.363V89.9102C259.391 88.3086 260.191 87.5078 261.793 87.5078H293.902Z" fill="white"/>
<path d="M355.191 45.0273C355.27 46.4727 356.031 47.2344 357.477 47.3125L373.18 48.0156C373.258 48.0156 373.336 48.0156 373.414 48.0156C374.938 48.0156 375.699 47.2148 375.699 45.6133V18.7188C375.699 15.9453 376.988 14.5586 379.566 14.5586H379.625L398.844 14.793C401.578 14.832 402.945 16.1406 402.945 18.7188C402.945 18.9141 402.945 19.1094 402.945 19.3047L396.324 109.715C396.207 111.238 395.465 112 394.098 112H378.102C376.5 112 375.699 111.199 375.699 109.598V80.6523C375.699 79.207 374.977 78.4258 373.531 78.3086L360.113 77.1953C360.035 77.1953 359.977 77.1953 359.938 77.1953C358.297 77.1953 357.477 78.0156 357.477 79.6562V79.7148L358.18 107.84C358.18 107.918 358.18 107.977 358.18 108.016C358.18 110.672 356.793 112 354.02 112H338.785C335.66 112 334.078 110.438 334.039 107.312L332.633 19.5977V19.4805C332.633 17.1758 333.824 16.0234 336.207 16.0234H350.152C352.457 16.0234 353.668 17.1758 353.785 19.4805L355.191 45.0273Z" fill="white"/>
<path d="M449 81.1797L444.547 62.1953C444.234 60.9062 443.355 60.2617 441.91 60.2617C440.934 60.2617 440.309 60.75 440.035 61.7266L435.113 79.1289C434.957 79.6367 434.879 80.0859 434.879 80.4766C434.879 81.6484 435.582 82.3516 436.988 82.5859L446.48 84.168C446.598 84.207 446.715 84.2266 446.832 84.2266C448.355 84.2266 449.117 83.4648 449.117 81.9414C449.117 81.707 449.078 81.4531 449 81.1797ZM487.789 123.66C487.867 123.895 487.906 124.129 487.906 124.363C487.906 125.887 487.105 126.648 485.504 126.648H466.461C463.883 126.648 462.125 125.535 461.188 123.309L451.754 100.574L430.895 97.3516L426.031 109.07C425.211 111.023 423.883 112 422.047 112H404.938C403.375 112 402.594 111.238 402.594 109.715C402.594 109.402 402.633 109.09 402.711 108.777L435.934 21.7656C436.754 19.5781 438.414 18.3672 440.914 18.1328L454.098 16.8438C454.449 16.8047 454.781 16.7852 455.094 16.7852C458.023 16.7852 459.859 18.1914 460.602 21.0039L487.789 123.66Z" fill="white"/>
<path d="M532.262 48.4844C532.262 45.4375 530.699 43.5625 527.574 42.8594L515.973 40.2227C515.738 40.1836 515.523 40.1641 515.328 40.1641C514.391 40.1641 513.883 40.75 513.805 41.9219L512.691 61.7266C512.691 61.8047 512.691 61.8828 512.691 61.9609C512.691 63.1719 513.258 63.7773 514.391 63.7773C514.664 63.7773 514.977 63.6602 515.328 63.4258L528.102 55.2227C530.875 53.4258 532.262 51.1797 532.262 48.4844ZM557.34 109.598C557.496 109.91 557.574 110.223 557.574 110.535C557.574 110.809 557.496 111.102 557.34 111.414C557.027 111.883 556.5 112.117 555.758 112.117H535.719C535.094 112.117 534.625 111.883 534.312 111.414L511.988 78.543L509.645 107.723C509.449 110.027 508.199 111.18 505.895 111.18H493.121C490.738 111.18 489.547 109.988 489.547 107.605V22.0586C489.547 18.9336 490.934 17.3125 493.707 17.1953L530.914 15.6133C531.305 15.6133 531.695 15.6133 532.086 15.6133C537.984 15.6133 542.945 17.4492 546.969 21.1211C551.148 24.9102 553.238 29.7148 553.238 35.5352V52.5273C553.238 58.6992 551.09 63.8555 546.793 67.9961L539.586 74.9102L557.34 109.598Z" fill="white"/>
<path d="M562.203 24.3438V24.2266C562.203 21.0625 563.785 19.4805 566.949 19.4805H589.039C592.164 19.4805 593.727 20.9648 593.727 23.9336C593.727 24.0898 593.727 24.2266 593.727 24.3438L589.859 107.137C589.703 110.223 588.102 111.766 585.055 111.766H568.004C564.879 111.766 563.297 110.184 563.258 107.02L562.203 24.3438Z" fill="white"/>
<path d="M656.539 38.3477C656.539 41.5117 654.957 43.0938 651.793 43.0938H632.75C631.148 43.0938 630.348 43.8945 630.348 45.4961V60.3789C630.348 61.9805 631.148 62.7812 632.75 62.7812H648.629C651.012 62.7812 652.203 63.9727 652.203 66.3555V77.6055C652.203 79.8711 651.09 81.082 648.863 81.2383L630.23 82.5859C628.902 82.6641 628.141 83.3477 627.945 84.6367L622.848 117.801C622.457 120.34 621.012 121.609 618.512 121.609H605.973C603.199 121.609 601.812 120.223 601.812 117.449V21.9414C601.812 17.9961 603.785 16.0234 607.73 16.0234H651.793C654.957 16.0234 656.539 17.6055 656.539 20.7695V38.3477Z" fill="white"/>
<path d="M717.945 38.3477C717.945 41.5117 716.363 43.0938 713.199 43.0938H694.156C692.555 43.0938 691.754 43.8945 691.754 45.4961V60.3789C691.754 61.9805 692.555 62.7812 694.156 62.7812H710.035C712.418 62.7812 713.609 63.9727 713.609 66.3555V77.6055C713.609 79.8711 712.496 81.082 710.27 81.2383L691.637 82.5859C690.309 82.6641 689.547 83.3477 689.352 84.6367L684.254 117.801C683.863 120.34 682.418 121.609 679.918 121.609H667.379C664.605 121.609 663.219 120.223 663.219 117.449V21.9414C663.219 17.9961 665.191 16.0234 669.137 16.0234H713.199C716.363 16.0234 717.945 17.6055 717.945 20.7695V38.3477Z" fill="white"/>
</svg>
